<?xml version="1.0" encoding="UTF-8"?>
<svg viewBox="0 0 700 600" version="1.1" xmlns="http://www.w3.org/2000/svg" xmlns:xlink="http://www.w3.org/1999/xlink">
  <!-- Generator: Sketch 64 (93537) - https://sketch.com -->
  <title>状态:60/异常态/系统错误</title>
  <desc>Created with Sketch.</desc>
  <defs>
    <linearGradient x1="50%" y1="100%" x2="50%" y2="0%" id="linearGradient-1">
      <stop stop-color="#B4B8BF" stop-opacity="0" offset="0%"></stop>
      <stop stop-color="#B4B8BF" offset="100%"></stop>
    </linearGradient>
    <linearGradient x1="50%" y1="100%" x2="50%" y2="0%" id="linearGradient-2">
      <stop stop-color="#B4B8BF" stop-opacity="0" offset="0%"></stop>
      <stop stop-color="#B4B8BF" offset="100%"></stop>
    </linearGradient>
    <linearGradient x1="50%" y1="100%" x2="50%" y2="0%" id="linearGradient-3">
      <stop stop-color="#B4B8BF" stop-opacity="0" offset="0%"></stop>
      <stop stop-color="#B4B8BF" offset="100%"></stop>
    </linearGradient>
    <linearGradient x1="50%" y1="100%" x2="50%" y2="0%" id="linearGradient-4">
      <stop stop-color="#B4B8BF" stop-opacity="0" offset="0%"></stop>
      <stop stop-color="#B4B8BF" offset="100%"></stop>
    </linearGradient>
    <linearGradient x1="100%" y1="48.4751822%" x2="0%" y2="48.6248526%" id="linearGradient-5">
      <stop stop-color="#B4B8BF" stop-opacity="0" offset="0%"></stop>
      <stop stop-color="#B4B8BF" stop-opacity="0.911806468" offset="91.1806468%"></stop>
      <stop stop-color="#B4B8BF" offset="100%"></stop>
    </linearGradient>
    <linearGradient x1="100%" y1="49.0328741%" x2="0%" y2="49.1278035%" id="linearGradient-6">
      <stop stop-color="#B4B8BF" stop-opacity="0" offset="0%"></stop>
      <stop stop-color="#B4B8BF" stop-opacity="0.911806468" offset="91.1806468%"></stop>
      <stop stop-color="#B4B8BF" offset="100%"></stop>
    </linearGradient>
    <path d="M131.455425,56.3265646 L221.857499,324.958804 C223.619015,330.1932 220.803691,335.864508 215.569295,337.626025 C215.531041,337.638898 215.492709,337.65154 215.454301,337.66395 C187.937542,346.55465 153.619442,351 112.5,351 C71.3805603,351 37.0624612,346.55465 9.54570273,337.663951 C4.29035795,335.965947 1.40656778,330.329141 3.10457591,325.073798 C3.11698546,325.03539 3.12962742,324.997058 3.14250111,324.958803 L93.544575,56.3265646 C97.067609,45.8577724 108.410225,40.227123 118.879017,43.750157 C124.807076,45.7451103 129.460472,50.3985062 131.455425,56.3265646 Z" id="path-7"></path>
    <path d="M80.5920357,18.8324167 L125.586675,92.4067132 C129.476575,98.7673964 127.473609,107.077136 121.112926,110.967036 C118.992476,112.263805 116.555181,112.95 114.06964,112.95 L24.0803605,112.95 C16.6245164,112.95 10.5803605,106.905844 10.5803605,99.45 C10.5803605,96.9644581 11.2665556,94.5271632 12.5633248,92.4067132 L57.5579643,18.8324167 C61.4478642,12.4717335 69.7576036,10.4687679 76.1182868,14.3586678 C77.9428572,15.4744907 79.4762127,17.0078462 80.5920357,18.8324167 Z" id="path-9"></path>
  </defs>
  <g id="状态:60/异常态/系统错误" stroke="none" stroke-width="1" fill="none" fill-rule="evenodd">
    <g id="@子组件/background/default/gary/system">
      <path d="M186.542595,177.875644 L295.085189,240.542741 C299.416804,243.0436 302.085189,247.665378 302.085189,252.667096 L302.085189,378.001289 C302.085189,383.003007 299.416804,387.624785 295.085189,390.125644 L186.542595,452.792741 C182.21098,455.2936 176.87421,455.2936 172.542595,452.792741 L64,390.125644 C59.6683849,387.624785 57,383.003007 57,378.001289 L57,252.667096 C57,247.665378 59.6683849,243.0436 64,240.542741 L172.542595,177.875644 C176.87421,175.374785 182.21098,175.374785 186.542595,177.875644 Z M179.542595,249.834192 C143.367944,249.834192 114.042595,279.159541 114.042595,315.334192 C114.042595,351.508844 143.367944,380.834192 179.542595,380.834192 C215.717246,380.834192 245.042595,351.508844 245.042595,315.334192 C245.042595,279.159541 215.717246,249.834192 179.542595,249.834192 Z" id="形状结合" fill="url(#linearGradient-1)" opacity="0.26" transform="translate(179.542595, 315.334192) rotate(-15.000000) translate(-179.542595, -315.334192) "></path>
      <path d="M493.617062,92.8550424 L543.269929,121.327124 C547.62171,123.822534 550.305734,128.455602 550.305734,133.472082 L550.305734,190.251148 C550.305734,195.267628 547.62171,199.900696 543.269929,202.396106 L493.617062,230.868188 C489.303682,233.341578 484.002052,233.341578 479.688673,230.868188 L430.035805,202.396106 C425.684025,199.900696 423,195.267628 423,190.251148 L423,133.472082 C423,128.455602 425.684025,123.822534 430.035805,121.327124 L479.688673,92.8550424 C484.002052,90.3816525 489.303682,90.3816525 493.617062,92.8550424 Z M487.13583,127.732206 C468.358149,127.732206 453.13583,142.954524 453.13583,161.732206 C453.13583,180.509887 468.358149,195.732206 487.13583,195.732206 C505.913512,195.732206 521.13583,180.509887 521.13583,161.732206 C521.13583,142.954524 505.913512,127.732206 487.13583,127.732206 Z" id="形状结合备份" fill="url(#linearGradient-2)" opacity="0.16" transform="translate(486.652867, 161.861615) rotate(-345.000000) translate(-486.652867, -161.861615) "></path>
      <path d="M536.016953,345.848368 L570.081363,365.338284 C574.439701,367.831902 577.12882,372.468636 577.12882,377.489915 L577.12882,416.251042 C577.12882,421.272321 574.439701,425.909055 570.081363,428.402674 L536.016953,447.892589 C531.709523,450.35708 526.419297,450.35708 522.111867,447.892589 L488.047457,428.402674 C483.689119,425.909055 481,421.272321 481,416.251042 L481,377.489915 C481,372.468636 483.689119,367.831902 488.047457,365.338284 L522.111867,345.848368 C526.419297,343.383877 531.709523,343.383877 536.016953,345.848368 Z M528.935,370.887516 C514.851739,370.887516 503.435,382.304255 503.435,396.387516 C503.435,410.470777 514.851739,421.887516 528.935,421.887516 C543.018262,421.887516 554.435,410.470777 554.435,396.387516 C554.435,382.304255 543.018262,370.887516 528.935,370.887516 Z" id="形状结合备份-2" fill="url(#linearGradient-3)" opacity="0.16" transform="translate(529.064410, 396.870479) rotate(-345.000000) translate(-529.064410, -396.870479) "></path>
      <path d="M0,462 C86.7411024,426.666667 203.407769,409 350,409 C496.592231,409 613.258898,426.666667 700,462" id="路径-19" fill="url(#linearGradient-4)" opacity="0.16"></path>
    </g>
    <path d="M370.360785,474.863524 C370.360785,474.863524 525.40233,426.880107 525.40233,426.880107 C525.40233,426.880107 456.314814,416 350,416 C243.685186,416 170.460952,422.677945 170.460952,438.064726 C170.460952,453.451507 370.360785,474.863524 370.360785,474.863524 Z" id="椭圆形备份-8" fill="url(#linearGradient-5)" opacity="0.16"></path>
    <ellipse id="椭圆形备份-8" fill="url(#linearGradient-6)" opacity="0.16" cx="561" cy="476" rx="53" ry="7"></ellipse>
    <g id="@子组件/objects/grayelement/systemobjects/grayelement/system" transform="translate(125.000000, 100.000000)">
      <path d="M208.800036,291.792838 L356.060395,300.651041 C359.368125,300.850012 361.888272,303.692755 361.689301,307.000484 C361.549951,309.31705 360.087152,311.345521 357.933105,312.209219 L239.113039,359.85198 C233.200063,362.22288 226.806318,363.147175 220.463971,362.547935 L45.618081,346.028068 C42.8689009,345.768319 40.8508184,343.3291 41.1105677,340.57992 C41.304333,338.529112 42.7360029,336.807031 44.7169374,336.242005 L195.426554,293.254811 C199.769873,292.015957 204.29164,291.521643 208.800036,291.792838 Z" id="矩形" fill="#B4B8BF" transform="translate(200.961653, 327.421457) rotate(4.000000) translate(-200.961653, -327.421457) "></path>
      <path d="M208.800036,286.792838 L356.060395,295.651041 C359.368125,295.850012 361.888272,298.692755 361.689301,302.000484 C361.549951,304.31705 360.087152,306.345521 357.933105,307.209219 L239.113039,354.85198 C233.200063,357.22288 226.806318,358.147175 220.463971,357.547935 L45.618081,341.028068 C42.8689009,340.768319 40.8508184,338.3291 41.1105677,335.57992 C41.304333,333.529112 42.7360029,331.807031 44.7169374,331.242005 L195.426554,288.254811 C199.769873,287.015957 204.29164,286.521643 208.800036,286.792838 Z" id="矩形" fill="#C9CDD4" transform="translate(200.961653, 322.421457) rotate(4.000000) translate(-200.961653, -322.421457) "></path>
      <g id="路径-25-+-路径-25备份-+-路径-25备份-2-蒙版" stroke-width="1" transform="translate(88.000000, -16.000000)">
        <mask id="mask-8" fill="white">
          <use xlink:href="#path-7"></use>
        </mask>
        <use id="蒙版" fill="#E6E8ED" xlink:href="#path-7"></use>
        <path d="M65.28108,69 C95.8562544,96.1070483 135.995171,108.18313 185.69783,105.228247 C185.69783,107.624017 203,164.853478 203,164.853478 C156.646918,165.644338 97.7305078,164.853478 46,118.999032 C46,118.999032 52.4270267,102.332688 65.28108,69 Z" id="路径-25" fill="#D7DAE0" mask="url(#mask-8)"></path>
        <path d="M41.5649007,165 C82.930336,192.392239 131.896145,206.088359 188.462329,206.088359 C188.462329,208.498083 211,269.905382 211,269.905382 C156.75238,270.700848 88.4459928,267.621136 19,215.290229 C19,215.290229 26.5216336,198.526819 41.5649007,165 Z" id="路径-25备份" fill="#D7DAE0" mask="url(#mask-8)"></path>
        <path d="M3.38663956,262 C61.2130052,298.876858 133.226776,317.315288 219.427951,317.315288 C219.427951,320.099188 249,373.382342 249,373.382342 C166.332083,374.301326 74.8287096,380.555927 -31,320.099188 C-31,320.099188 -19.5377868,300.732792 3.38663956,262 Z" id="路径-25备份-2" fill="#D7DAE0" mask="url(#mask-8)"></path>
      </g>
    </g>
    <g id="@子组件/objects/grayelement/errorobjects/grayelement/error" transform="translate(562.000000, 410.000000) rotate(10.000000) translate(-562.000000, -410.000000) translate(472.000000, 320.000000)">
      <rect id="矩形" fill="#C9CDD4" x="83.25" y="116.1" width="14.4" height="43.2" rx="3.15"></rect>
      <g id="三角形" stroke-width="1" transform="translate(21.150000, 8.550000)">
        <mask id="mask-10" fill="white">
          <use xlink:href="#path-9"></use>
        </mask>
        <use id="蒙版" fill="#D7DAE0" xlink:href="#path-9"></use>
        <path d="M75.1920357,18.8324167 L120.186675,92.4067132 C124.076575,98.7673964 122.073609,107.077136 115.712926,110.967036 C113.592476,112.263805 111.155181,112.95 108.66964,112.95 L18.6803605,112.95 C11.2245164,112.95 5.18036048,106.905844 5.18036048,99.45 C5.18036048,96.9644581 5.86655556,94.5271632 7.16332478,92.4067132 L52.1579643,18.8324167 C56.0478642,12.4717335 64.3576036,10.4687679 70.7182868,14.3586678 C72.5428572,15.4744907 74.0762127,17.0078462 75.1920357,18.8324167 Z" fill="#E6E8ED" mask="url(#mask-10)"></path>
      </g>
      <rect id="矩形" fill="#C9CDD4" x="85.5" y="45.9" width="9" height="44.1" rx="4.5"></rect>
      <rect id="矩形" fill="#C9CDD4" transform="translate(90.000000, 102.150000) scale(1, -1) translate(-90.000000, -102.150000) " x="85.5" y="97.65" width="9" height="9" rx="4.5"></rect>
    </g>
  </g>
</svg>
