<?xml version="1.0" encoding="UTF-8"?>
<svg viewBox="0 0 12 14" version="1.1" xmlns="http://www.w3.org/2000/svg" xmlns:xlink="http://www.w3.org/1999/xlink">
    <!-- Generator: Sketch 55.2 (78181) - https://sketchapp.com -->
    <title>48FA24EF-2390-4752-82DB-BD7819922541</title>
    <desc>Created with Sketch.</desc>
    <g id="icon-icon" stroke="none" stroke-width="1" fill-rule="evenodd">
        <g id="canvas" transform="translate(-338.000000, -266.000000)" fill="#000000" fill-rule="nonzero">
            <g id="7.Icon/interface/46.delete/outline" transform="translate(336.000000, 265.000000)">
                <path d="M5.625,2.875 L5.5,2.875 C5.56875,2.875 5.625,2.81875 5.625,2.75 L5.625,2.875 L10.375,2.875 L10.375,2.75 C10.375,2.81875 10.43125,2.875 10.5,2.875 L10.375,2.875 L10.375,4 L11.5,4 L11.5,2.75 C11.5,2.1984375 11.0515625,1.75 10.5,1.75 L5.5,1.75 C4.9484375,1.75 4.5,2.1984375 4.5,2.75 L4.5,4 L5.625,4 L5.625,2.875 Z M13.5,4 L2.5,4 C2.2234375,4 2,4.2234375 2,4.5 L2,5 C2,5.06875 2.05625,5.125 2.125,5.125 L3.06875,5.125 L3.4546875,13.296875 C3.4796875,13.8296875 3.9203125,14.25 4.453125,14.25 L11.546875,14.25 C12.08125,14.25 12.5203125,13.83125 12.5453125,13.296875 L12.93125,5.125 L13.875,5.125 C13.94375,5.125 14,5.06875 14,5 L14,4.5 C14,4.2234375 13.7765625,4 13.5,4 Z M11.4265625,13.125 L4.5734375,13.125 L4.1953125,5.125 L11.8046875,5.125 L11.4265625,13.125 Z" id="fill"></path>
            </g>
        </g>
    </g>
</svg>