<?xml version="1.0" encoding="UTF-8"?>
<svg viewBox="0 0 12 12" version="1.1" xmlns="http://www.w3.org/2000/svg" xmlns:xlink="http://www.w3.org/1999/xlink">
    <!-- Generator: Sketch 55.2 (78181) - https://sketchapp.com -->
    <title>3DBF5128-3B69-4BA1-AC5C-EE3DF7ECDB12</title>
    <desc>Created with Sketch.</desc>
    <g stroke="none" stroke-width="1" fill="none" fill-rule="evenodd" opacity="0.65">
        <g transform="translate(-65.000000, -78.000000)" fill="#000000" fill-rule="nonzero">
            <g transform="translate(63.000000, 76.000000)">
                <path d="M4.2640625,8 L8.4109375,2.7015625 C8.475,2.6203125 8.4171875,2.5 8.3125,2.5 L7.1046875,2.5 C7.028125,2.5 6.9546875,2.5359375 6.9078125,2.5953125 L2.91875,7.6921875 C2.7765625,7.8734375 2.7765625,8.128125 2.91875,8.309375 L6.9078125,13.4046875 C6.9546875,13.465625 7.028125,13.5 7.1046875,13.5 L8.3125,13.5 C8.4171875,13.5 8.475,13.3796875 8.4109375,13.2984375 L4.2640625,8 Z M9.0140625,8 L13.1609375,2.7015625 C13.225,2.6203125 13.1671875,2.5 13.0625,2.5 L11.8546875,2.5 C11.778125,2.5 11.7046875,2.5359375 11.6578125,2.5953125 L7.66875,7.6921875 C7.5265625,7.8734375 7.5265625,8.128125 7.66875,8.309375 L11.6578125,13.4046875 C11.7046875,13.465625 11.778125,13.5 11.8546875,13.5 L13.0625,13.5 C13.1671875,13.5 13.225,13.3796875 13.1609375,13.2984375 L9.0140625,8 Z" id="fill"></path>
            </g>
        </g>
    </g>
</svg>