<?xml version="1.0" encoding="UTF-8"?>
<svg viewBox="0 0 12 12" version="1.1" xmlns="http://www.w3.org/2000/svg" xmlns:xlink="http://www.w3.org/1999/xlink">
    <!-- Generator: Sketch 55.2 (78181) - https://sketchapp.com -->
    <title>4436430B-2EA9-42CF-8638-4A892938D787</title>
    <desc>Created with Sketch.</desc>
    <g stroke="none" stroke-width="1" fill="none" fill-rule="evenodd" opacity="0.65">
        <g transform="translate(-90.000000, -78.000000)" fill="#000000" fill-rule="nonzero">
            <g transform="translate(88.000000, 76.000000)">
                <path d="M8.33125,7.6921875 L4.3421875,2.5953125 C4.2953125,2.534375 4.221875,2.5 4.1453125,2.5 L2.9375,2.5 C2.8328125,2.5 2.775,2.6203125 2.8390625,2.7015625 L6.9859375,8 L2.8390625,13.2984375 C2.775,13.3796875 2.8328125,13.5 2.9375,13.5 L4.1453125,13.5 C4.221875,13.5 4.2953125,13.4640625 4.3421875,13.4046875 L8.33125,8.309375 C8.4734375,8.1265625 8.4734375,7.8734375 8.33125,7.6921875 Z M13.08125,7.6921875 L9.0921875,2.5953125 C9.0453125,2.534375 8.971875,2.5 8.8953125,2.5 L7.6875,2.5 C7.5828125,2.5 7.525,2.6203125 7.5890625,2.7015625 L11.7359375,8 L7.5890625,13.2984375 C7.525,13.3796875 7.5828125,13.5 7.6875,13.5 L8.8953125,13.5 C8.971875,13.5 9.0453125,13.4640625 9.0921875,13.4046875 L13.08125,8.309375 C13.2234375,8.1265625 13.2234375,7.8734375 13.08125,7.6921875 Z" id="fill"></path>
            </g>
        </g>
    </g>
</svg>