<?xml version="1.0" standalone="no"?><!DOCTYPE svg PUBLIC "-//W3C//DTD SVG 1.1//EN" "http://www.w3.org/Graphics/SVG/1.1/DTD/svg11.dtd"><svg t="1605076940138" class="icon" viewBox="0 0 1024 1024" version="1.1" xmlns="http://www.w3.org/2000/svg" p-id="3795" xmlns:xlink="http://www.w3.org/1999/xlink"><defs><style type="text/css"></style></defs><path d="M13.128205 98.461538m52.512821 0l892.717948 0q52.512821 0 52.512821 52.512821l0 722.051282q0 52.512821-52.512821 52.512821l-892.717948 0q-52.512821 0-52.512821-52.512821l0-722.051282q0-52.512821 52.512821-52.512821Z" fill="#D7D7D7" p-id="3796"></path><path d="M105.025641 190.358974m13.128205 0l787.692308 0q13.128205 0 13.128205 13.128205l0 617.025642q0 13.128205-13.128205 13.128205l-787.692308 0q-13.128205 0-13.128205-13.128205l0-617.025642q0-13.128205 13.128205-13.128205Z" fill="#F2F2F2" p-id="3797"></path><path d="M722.051282 361.025641m-118.153846 0a118.153846 118.153846 0 1 0 236.307692 0 118.153846 118.153846 0 1 0-236.307692 0Z" fill="#D7D7D7" p-id="3798"></path><path d="M1004.438974 898.231795L734.391795 549.809231 440.845128 925.538462h501.10359l62.490256-27.306667z" fill="#D7D7D7" p-id="3799"></path><path d="M398.70359 482.461538L48.443077 874.994872l392.402051 50.54359 154.387693-189.44-196.529231-253.636924z" fill="#D7D7D7" p-id="3800"></path></svg>