<?xml version="1.0" encoding="UTF-8"?>
<svg viewBox="0 0 700 600" version="1.1" xmlns="http://www.w3.org/2000/svg" xmlns:xlink="http://www.w3.org/1999/xlink">
  <!-- Generator: Sketch 64 (93537) - https://sketch.com -->
  <title>状态:60/异常态/权限异常</title>
  <desc>Created with Sketch.</desc>
  <defs>
    <linearGradient x1="50%" y1="100%" x2="50%" y2="0%" id="linearGradient-1">
      <stop stop-color="#B4B8BF" stop-opacity="0" offset="0%"></stop>
      <stop stop-color="#B4B8BF" offset="100%"></stop>
    </linearGradient>
    <linearGradient x1="50%" y1="100%" x2="50%" y2="0%" id="linearGradient-2">
      <stop stop-color="#B4B8BF" stop-opacity="0" offset="0%"></stop>
      <stop stop-color="#B4B8BF" offset="100%"></stop>
    </linearGradient>
    <linearGradient x1="50%" y1="100%" x2="50%" y2="0%" id="linearGradient-3">
      <stop stop-color="#B4B8BF" stop-opacity="0" offset="0%"></stop>
      <stop stop-color="#B4B8BF" offset="100%"></stop>
    </linearGradient>
    <linearGradient x1="50%" y1="100%" x2="50%" y2="0%" id="linearGradient-4">
      <stop stop-color="#B4B8BF" stop-opacity="0" offset="0%"></stop>
      <stop stop-color="#B4B8BF" offset="100%"></stop>
    </linearGradient>
    <linearGradient x1="100%" y1="49.8792597%" x2="0%" y2="49.8911111%" id="linearGradient-5">
      <stop stop-color="#B4B8BF" stop-opacity="0" offset="0%"></stop>
      <stop stop-color="#B4B8BF" stop-opacity="0.911806468" offset="91.1806468%"></stop>
      <stop stop-color="#B4B8BF" offset="100%"></stop>
    </linearGradient>
    <linearGradient x1="100%" y1="49.5910035%" x2="0%" y2="49.6311491%" id="linearGradient-6">
      <stop stop-color="#B4B8BF" stop-opacity="0" offset="0%"></stop>
      <stop stop-color="#B4B8BF" stop-opacity="0.911806468" offset="91.1806468%"></stop>
      <stop stop-color="#B4B8BF" offset="100%"></stop>
    </linearGradient>
  </defs>
  <g id="状态:60/异常态/权限异常" stroke="none" stroke-width="1" fill="none" fill-rule="evenodd">
    <g id="@子组件/background/default/gary/system">
      <path d="M186.542595,177.875644 L295.085189,240.542741 C299.416804,243.0436 302.085189,247.665378 302.085189,252.667096 L302.085189,378.001289 C302.085189,383.003007 299.416804,387.624785 295.085189,390.125644 L186.542595,452.792741 C182.21098,455.2936 176.87421,455.2936 172.542595,452.792741 L64,390.125644 C59.6683849,387.624785 57,383.003007 57,378.001289 L57,252.667096 C57,247.665378 59.6683849,243.0436 64,240.542741 L172.542595,177.875644 C176.87421,175.374785 182.21098,175.374785 186.542595,177.875644 Z M179.542595,249.834192 C143.367944,249.834192 114.042595,279.159541 114.042595,315.334192 C114.042595,351.508844 143.367944,380.834192 179.542595,380.834192 C215.717246,380.834192 245.042595,351.508844 245.042595,315.334192 C245.042595,279.159541 215.717246,249.834192 179.542595,249.834192 Z" id="形状结合" fill="url(#linearGradient-1)" opacity="0.26" transform="translate(179.542595, 315.334192) rotate(-15.000000) translate(-179.542595, -315.334192) "></path>
      <path d="M493.617062,92.8550424 L543.269929,121.327124 C547.62171,123.822534 550.305734,128.455602 550.305734,133.472082 L550.305734,190.251148 C550.305734,195.267628 547.62171,199.900696 543.269929,202.396106 L493.617062,230.868188 C489.303682,233.341578 484.002052,233.341578 479.688673,230.868188 L430.035805,202.396106 C425.684025,199.900696 423,195.267628 423,190.251148 L423,133.472082 C423,128.455602 425.684025,123.822534 430.035805,121.327124 L479.688673,92.8550424 C484.002052,90.3816525 489.303682,90.3816525 493.617062,92.8550424 Z M487.13583,127.732206 C468.358149,127.732206 453.13583,142.954524 453.13583,161.732206 C453.13583,180.509887 468.358149,195.732206 487.13583,195.732206 C505.913512,195.732206 521.13583,180.509887 521.13583,161.732206 C521.13583,142.954524 505.913512,127.732206 487.13583,127.732206 Z" id="形状结合备份" fill="url(#linearGradient-2)" opacity="0.16" transform="translate(486.652867, 161.861615) rotate(-345.000000) translate(-486.652867, -161.861615) "></path>
      <path d="M536.016953,345.848368 L570.081363,365.338284 C574.439701,367.831902 577.12882,372.468636 577.12882,377.489915 L577.12882,416.251042 C577.12882,421.272321 574.439701,425.909055 570.081363,428.402674 L536.016953,447.892589 C531.709523,450.35708 526.419297,450.35708 522.111867,447.892589 L488.047457,428.402674 C483.689119,425.909055 481,421.272321 481,416.251042 L481,377.489915 C481,372.468636 483.689119,367.831902 488.047457,365.338284 L522.111867,345.848368 C526.419297,343.383877 531.709523,343.383877 536.016953,345.848368 Z M528.935,370.887516 C514.851739,370.887516 503.435,382.304255 503.435,396.387516 C503.435,410.470777 514.851739,421.887516 528.935,421.887516 C543.018262,421.887516 554.435,410.470777 554.435,396.387516 C554.435,382.304255 543.018262,370.887516 528.935,370.887516 Z" id="形状结合备份-2" fill="url(#linearGradient-3)" opacity="0.16" transform="translate(529.064410, 396.870479) rotate(-345.000000) translate(-529.064410, -396.870479) "></path>
      <path d="M0,462 C86.7411024,426.666667 203.407769,409 350,409 C496.592231,409 613.258898,426.666667 700,462" id="路径-19" fill="url(#linearGradient-4)" opacity="0.16"></path>
    </g>
    <ellipse id="椭圆形备份-8" fill="url(#linearGradient-5)" opacity="0.16" cx="337" cy="456" rx="150" ry="7"></ellipse>
    <ellipse id="椭圆形备份-8" fill="url(#linearGradient-6)" opacity="0.16" cx="468.5" cy="465" rx="81.5" ry="7"></ellipse>
    <g id="@子组件/objects/grayelement/lockobjects/grayelement/lock" transform="translate(152.000000, 100.000000)">
      <path d="M179,41 C220.973641,41 255,75.026359 255,117 L255,160 L229,160 L229,115 C229,87.3857625 206.614237,65 179,65 C151.385763,65 129,87.3857625 129,115 L129,115 L129,160 L103,160 L103,117 C103,75.026359 137.026359,41 179,41 Z" id="形状结合" fill="#D7DAE0"></path>
      <rect id="矩形" fill="#E6E8ED" x="35" y="129" width="287" height="226" rx="28"></rect>
      <rect id="矩形备份-2" fill="#C9CDD4" x="246" y="256" width="122" height="106" rx="18"></rect>
      <circle id="椭圆形" fill="#F0F2F5" cx="179" cy="242" r="60"></circle>
      <path d="M179,211 C190.59798,211 200,220.40202 200,232 C200,241.143381 194.15654,248.921948 186.000404,251.804917 L186,266 C186,269.865993 182.865993,273 179,273 C175.134007,273 172,269.865993 172,266 L172.000591,251.805269 C163.843936,248.922581 158,241.143753 158,232 C158,220.40202 167.40202,211 179,211 Z" id="形状结合" fill="#D7DAE0"></path>
      <path d="M307.5,207 C309.985281,207 312,209.014719 312,211.5 L312.000633,216.599046 C321.184335,218.842394 328,227.125255 328,237 C328,246.874745 321.184335,255.157606 312.000633,257.400954 L312,267.5 C312,269.985281 309.985281,272 307.5,272 C305.014719,272 303,269.985281 303,267.5 L302.999989,257.619505 C293.315117,255.751781 286,247.230159 286,237 C286,226.769841 293.315117,218.248219 302.999989,216.380495 L303,211.5 C303,209.014719 305.014719,207 307.5,207 Z M307,224 C299.820298,224 294,229.820298 294,237 C294,244.179702 299.820298,250 307,250 C314.179702,250 320,244.179702 320,237 C320,229.820298 314.179702,224 307,224 Z" id="形状结合" fill="#B4B8BF"></path>
      <rect id="矩形" fill="#D7DAE0" x="246" y="263" width="122" height="102" rx="18"></rect>
      <circle id="椭圆形" fill="#DFE2E8" cx="307" cy="313" r="30"></circle>
      <circle id="Oval" fill="#C9CDD4" cx="307.5" cy="313.5" r="15.5"></circle>
    </g>
  </g>
</svg>
