<svg t="1585305829094" class="icon" viewBox="0 0 1024 1024" version="1.1" xmlns="http://www.w3.org/2000/svg" p-id="2346" width="200" height="200">
  <path d="M693.333333 330.666667c-12.8-12.8-32-12.8-44.8 0L512 467.2l-136.533333-136.533333c-12.8-12.8-32-12.8-44.8 0-12.8 12.8-12.8 32 0 44.8l136.533333 136.533333-136.533333 136.533333c-12.8 12.8-12.8 32 0 44.8 6.4 6.4 14.933333 8.533333 23.466666 8.533334s17.066667-2.133333 23.466667-8.533334l136.533333-136.533333 136.533334 136.533333c6.4 6.4 14.933333 8.533333 23.466666 8.533334s17.066667-2.133333 23.466667-8.533334c12.8-12.8 12.8-32 0-44.8L556.8 512l136.533333-136.533333c12.8-12.8 12.8-32 0-44.8z" p-id="2348"></path>
</svg>