<?xml version="1.0" encoding="UTF-8"?>
<svg width="14px" height="14px" viewBox="0 0 14 14" version="1.1" xmlns="http://www.w3.org/2000/svg" xmlns:xlink="http://www.w3.org/1999/xlink">
    <title>向左旋转</title>
    <g id="组件分类" stroke="none" stroke-width="1" fill="none" fill-rule="evenodd">
        <g id="查看图片" transform="translate(-762.000000, -821.000000)">
            <g id="向左旋转" transform="translate(762.000000, 821.000000)">
                <rect id="矩形" x="0" y="0" width="14" height="14"></rect>
                <rect id="矩形" stroke="#FFFFFF" stroke-width="1.75" x="2.625" y="6.125" width="7" height="5.25" rx="0.875"></rect>
                <path d="M8.37085908,0.175025748 C8.42765626,0.250755322 8.45835908,0.342863779 8.45835908,0.437525748 L8.45838644,1.25424571 C11.2374282,1.62818819 13.3802341,4.0091799 13.3802341,6.89065075 C13.3802341,6.89065075 13.3802341,6.89065075 13.3802341,6.89065075 C13.3802341,7.13244247 13.1842471,7.32846605 12.9424554,7.32851995 L12.0683665,7.32868335 C11.8264379,7.32874651 11.6302793,7.13266127 11.6302341,6.89073264 C11.6302341,6.89070534 11.6302341,6.89067804 11.6302341,6.89065075 C11.6302341,6.89065075 11.6302341,6.89065075 11.6302341,6.89065075 C11.6302341,4.97792969 10.2664095,3.38374691 8.45815785,3.0274998 L8.45835908,3.93752575 C8.45835908,4.17915033 8.26248366,4.37502575 8.02085908,4.37502575 C7.92619711,4.37502575 7.83408866,4.34432293 7.75835908,4.28752575 L5.42502575,2.53752575 C5.23172609,2.392551 5.192551,2.11832541 5.33752575,1.92502575 C5.36239948,1.89186077 5.39186077,1.86239948 5.42502575,1.83752575 L7.75835908,0.0875257476 C7.95165874,-0.0574489992 8.22588433,-0.0182739148 8.37085908,0.175025748 Z" id="路径" fill="#FFFFFF" fill-rule="nonzero"></path>
            </g>
        </g>
    </g>
</svg>