<?xml version="1.0" standalone="no" ?>
<!DOCTYPE svg PUBLIC "-//W3C//DTD SVG 1.1//EN" "http://www.w3.org/Graphics/SVG/1.1/DTD/svg11.dtd">
<svg t="1577093823530" class="icon" viewBox="0 0 1024 1024" version="1.1" xmlns="http://www.w3.org/2000/svg" p-id="4001" xmlns:xlink="http://www.w3.org/1999/xlink" width="20" height="20">
  <defs>
    <style type="text/css"></style>
  </defs>
  <path d="M870.74666666 826.90666666L733.96666666 690.12666666c109.87-132 102.92-328.42-20.91-452.24a336 336 0 0 0-475.17 0C106.66666666 369.09666666 106.66666666 581.84666666 237.88666666 713.05666666a336 336 0 0 0 450.7 22.19l136.9 136.91a32 32 0 0 0 45.26 0 32 32 0 0 0 0-45.25zM475.46666666 747.46666666a271 271 0 1 1 102.39-19.91A271.21 271.21 0 0 1 475.46666666 747.46666666z" p-id="4002"></path>
</svg>