<svg xmlns="http://www.w3.org/2000/svg" viewBox="0 0 38 38">
  <title>分享资源 24</title>
  <g id="图层_2" data-name="图层 2">
    <g id="图层_1-2" data-name="图层 1">
      <path d="M32,26a6,6,0,0,0-4.35,1.87l-10.27-5.6a9,9,0,1,0-1.55,2.58L26.2,30.5A5.71,5.71,0,0,0,26,32a6,6,0,1,0,6-6ZM9,25a6,6,0,1,1,6-6A6,6,0,0,1,9,25ZM32,35a3,3,0,1,1,3-3A3,3,0,0,1,32,35Z" />
      <path d="M20.5,14a1.42,1.42,0,0,0,.74-.2l6.42-3.66A6,6,0,1,0,26,6a5.92,5.92,0,0,0,.2,1.52L19.76,11.2A1.5,1.5,0,0,0,20.5,14ZM32,3a3,3,0,1,1-3,3A3,3,0,0,1,32,3Z" />
    </g>
  </g>
</svg>