<?xml version="1.0" encoding="UTF-8"?>
<svg width="200" height="200" viewBox="0 0 16 16" version="1.1" xmlns="http://www.w3.org/2000/svg" xmlns:xlink="http://www.w3.org/1999/xlink">
    <!-- Generator: Sketch 64 (93537) - https://sketch.com -->
    <title>成功</title>
    <desc>Created with Sketch.</desc>
    <g id="病种审核" stroke="none" stroke-width="1" fill="none" fill-rule="evenodd">
        <g id="图标/插画" transform="translate(-40.000000, -419.000000)">
            <g id="成功" transform="translate(40.000000, 419.000000)">
                <g id="Group">
                    <g>
                        <rect id="Rectangle" fill="#000000" fill-rule="nonzero" opacity="0" x="0" y="0" width="16" height="16"></rect>
                        <path d="M8,1 C4.134375,1 1,4.134375 1,8 C1,11.865625 4.134375,15 8,15 C11.865625,15 15,11.865625 15,8 C15,4.134375 11.865625,1 8,1 Z M11.0234375,5.7140625 L7.7328125,10.2765625 C7.534375,10.553125 7.1234375,10.553125 6.925,10.2765625 L4.9765625,7.5765625 C4.9171875,7.49375 4.9765625,7.378125 5.078125,7.378125 L5.8109375,7.378125 C5.9703125,7.378125 6.121875,7.4546875 6.215625,7.5859375 L7.328125,9.1296875 L9.784375,5.7234375 C9.878125,5.59375 10.028125,5.515625 10.1890625,5.515625 L10.921875,5.515625 C11.0234375,5.515625 11.0828125,5.63125 11.0234375,5.7140625 Z" id="Shape" fill="#12CD9F" fill-rule="nonzero"></path>
                    </g>
                </g>
            </g>
        </g>
    </g>
</svg>