<?xml version="1.0" encoding="UTF-8"?>
<svg width="14px" height="14px" viewBox="0 0 14 14" version="1.1" xmlns="http://www.w3.org/2000/svg" xmlns:xlink="http://www.w3.org/1999/xlink">
    <title>水平翻转</title>
    <g id="组件分类" stroke="none" stroke-width="1" fill="none" fill-rule="evenodd">
        <g id="查看图片" transform="translate(-806.000000, -821.000000)">
            <g id="水平翻转" transform="translate(806.000000, 821.000000)">
                <rect id="矩形" x="0" y="0" width="14" height="14"></rect>
                <path d="M3.5,9.29118112 C3.5,9.48448078 3.34329966,9.64118112 3.15,9.64118112 C3.0652219,9.64118112 2.98332541,9.61040973 2.91952339,9.55458296 L0.301030678,7.26340184 C0.155557857,7.13611312 0.140816729,6.91499621 0.268105447,6.76952339 C0.278337496,6.75782962 0.289336908,6.74683021 0.301030678,6.73659816 L2.91952339,4.44541704 C3.06499621,4.31812832 3.28611312,4.33286945 3.41340184,4.47834227 C3.46922861,4.54214429 3.5,4.62404078 3.5,4.70881888 L3.4995025,6.12481408 L10.4995025,6.12481408 L10.5,4.70881888 C10.5,4.6452353 10.5173089,4.58327263 10.5495153,4.5293488 L10.5865982,4.47834227 C10.7138869,4.33286945 10.9350038,4.31812832 11.0804766,4.44541704 L11.0804766,4.44541704 L13.6989693,6.73659816 C13.7106631,6.74683021 13.7216625,6.75782962 13.7318946,6.76952339 C13.8591833,6.91499621 13.8444421,7.13611312 13.6989693,7.26340184 L13.6989693,7.26340184 L11.0804766,9.55458296 C11.0166746,9.61040973 10.9347781,9.64118112 10.85,9.64118112 C10.6567003,9.64118112 10.5,9.48448078 10.5,9.29118112 L10.5,9.29118112 L10.4995025,7.87481408 L3.4995025,7.87481408 L3.5,9.29118112 Z" id="形状结合" fill="#FFFFFF"></path>
            </g>
        </g>
    </g>
</svg>